<svg viewBox="0 0 800 500" xmlns="http://www.w3.org/2000/svg">
  <style>
    @keyframes scan {
      0% { y: 50; opacity: 0.8; }
      50% { y: 350; opacity: 0.8; }
      100% { y: 50; opacity: 0.8; }
    }
    @keyframes pulse {
      0% { transform: scale(1); opacity: 0.7; }
      50% { transform: scale(1.05); opacity: 1; }
      100% { transform: scale(1); opacity: 0.7; }
    }
    @keyframes fadeIn {
      0% { opacity: 0; }
      100% { opacity: 1; }
    }
    @keyframes countUp {
      0% { content: "0%"; }
      10% { content: "6%"; }
      20% { content: "12%"; }
      30% { content: "18%"; }
      40% { content: "24%"; }
      50% { content: "30%"; }
      60% { content: "36%"; }
      70% { content: "42%"; }
      80% { content: "48%"; }
      90% { content: "54%"; }
      100% { content: "60%"; }
    }
    @keyframes fillCircle {
      0% { stroke-dasharray: 0 100; }
      100% { stroke-dasharray: 60 100; }
    }
    .document {
      animation: pulse 3s infinite ease-in-out;
    }
    .scan-line {
      animation: scan 4s infinite ease-in-out;
    }
    .skill-tag {
      animation: fadeIn 0.5s ease-out forwards;
      opacity: 0;
    }
    .skill-tag:nth-child(1) { animation-delay: 1s; }
    .skill-tag:nth-child(2) { animation-delay: 1.5s; }
    .skill-tag:nth-child(3) { animation-delay: 2s; }
    .skill-tag:nth-child(4) { animation-delay: 2.5s; }
    .skill-tag:nth-child(5) { animation-delay: 3s; }
    .progress-circle {
      transform-origin: center;
      transform: rotate(-90deg);
      animation: fillCircle 2s ease-out forwards;
      animation-delay: 3.5s;
    }
    .percentage-text {
      animation: fadeIn 0.5s ease-out forwards;
      animation-delay: 3.5s;
      opacity: 0;
    }
    .match-text {
      animation: fadeIn 0.5s ease-out forwards;
      animation-delay: 3.2s;
      opacity: 0;
    }
  </style>

  <!-- Background -->
  <rect x="0" y="0" width="800" height="500" fill="#f5f7fa" rx="10" ry="10"/>
  
  <!-- Header -->
  <rect x="50" y="30" width="700" height="60" fill="#4a6cf7" rx="5" ry="5"/>
  <text x="90" y="70" font-family="Arial" font-size="28" fill="white" font-weight="bold">ResumeAI Scanner</text>
  
  <!-- Main Area -->
  <rect x="100" y="120" width="250" height="320" fill="#ffffff" stroke="#dde1e7" stroke-width="2" rx="5" ry="5" class="document"/>
  
  <!-- Resume Lines -->
  <rect x="120" y="140" width="150" height="15" fill="#dde1e7" rx="2" ry="2"/>
  <rect x="120" y="165" width="210" height="10" fill="#e8ecf0" rx="2" ry="2"/>
  <rect x="120" y="185" width="190" height="10" fill="#e8ecf0" rx="2" ry="2"/>
  <rect x="120" y="205" width="210" height="10" fill="#e8ecf0" rx="2" ry="2"/>
  
  <rect x="120" y="235" width="120" height="15" fill="#dde1e7" rx="2" ry="2"/>
  <rect x="120" y="260" width="210" height="10" fill="#e8ecf0" rx="2" ry="2"/>
  <rect x="120" y="280" width="190" height="10" fill="#e8ecf0" rx="2" ry="2"/>
  <rect x="120" y="300" width="210" height="10" fill="#e8ecf0" rx="2" ry="2"/>
  
  <rect x="120" y="330" width="120" height="15" fill="#dde1e7" rx="2" ry="2"/>
  <rect x="120" y="355" width="210" height="10" fill="#e8ecf0" rx="2" ry="2"/>
  <rect x="120" y="375" width="190" height="10" fill="#e8ecf0" rx="2" ry="2"/>
  <rect x="120" y="395" width="210" height="10" fill="#e8ecf0" rx="2" ry="2"/>
  
  <!-- Scan Line -->
  <rect x="100" y="50" width="250" height="4" fill="#4a6cf7" opacity="0.8" rx="2" ry="2" class="scan-line"/>
  
  <!-- AI Analysis Area -->
  <rect x="450" y="120" width="250" height="320" fill="#ffffff" stroke="#dde1e7" stroke-width="2" rx="5" ry="5"/>
  
  <!-- AI Processing Text -->
  <text x="495" y="150" font-family="Arial" font-size="18" fill="#4a6cf7" font-weight="bold">Resume Analysis</text>
  
  <!-- Skills Detected -->
  <text x="470" y="185" font-family="Arial" font-size="14" fill="#333333">Skills Detected:</text>
  
  <!-- Skill Tags -->
  <rect x="470" y="195" width="80" height="25" fill="#e8f4ff" stroke="#4a6cf7" stroke-width="1" rx="12" ry="12" class="skill-tag"/>
  <text x="510" y="212" font-family="Arial" font-size="12" fill="#4a6cf7" text-anchor="middle">React</text>
  
  <rect x="560" y="195" width="80" height="25" fill="#e8f4ff" stroke="#4a6cf7" stroke-width="1" rx="12" ry="12" class="skill-tag"/>
  <text x="600" y="212" font-family="Arial" font-size="12" fill="#4a6cf7" text-anchor="middle">Python</text>
  
  <rect x="470" y="230" width="100" height="25" fill="#e8f4ff" stroke="#4a6cf7" stroke-width="1" rx="12" ry="12" class="skill-tag"/>
  <text x="520" y="247" font-family="Arial" font-size="12" fill="#4a6cf7" text-anchor="middle">UX Design</text>
  
  <!-- Undetected Skills -->
  <text x="470" y="275" font-family="Arial" font-size="14" fill="#333333">Required Skills Not Found:</text>
  
  <rect x="470" y="285" width="80" height="25" fill="#ffeeee" stroke="#ff6b6b" stroke-width="1" rx="12" ry="12" class="skill-tag"/>
  <text x="510" y="302" font-family="Arial" font-size="12" fill="#ff6b6b" text-anchor="middle">AWS</text>
  
  <rect x="560" y="285" width="80" height="25" fill="#ffeeee" stroke="#ff6b6b" stroke-width="1" rx="12" ry="12" class="skill-tag"/>
  <text x="600" y="302" font-family="Arial" font-size="12" fill="#ff6b6b" text-anchor="middle">Node.js</text>
  
  <!-- Job Match Analysis -->
  <text x="470" y="335" font-family="Arial" font-size="16" fill="#333333" font-weight="bold" class="match-text">Match Percentage for Job Role:</text>
  
  <!-- Circle Percentage Indicator -->
  <circle cx="575" cy="380" r="40" fill="none" stroke="#f0f0f0" stroke-width="10"/>
  <circle cx="575" cy="380" r="40" fill="none" stroke="#4a6cf7" stroke-width="10" stroke-dasharray="0 100" class="progress-circle"/>
  <text x="575" y="385" font-family="Arial" font-size="24" fill="#333333" font-weight="bold" text-anchor="middle" class="percentage-text">60%</text>

  <!-- Connecting Elements -->
  <path d="M 350 250 C 375 250, 375 250, 450 250" stroke="#4a6cf7" stroke-width="2" stroke-dasharray="5,5" fill="none"/>
</svg>
