<?xml version="1.0" encoding="UTF-8"?>
<svg width="256px" height="549px" viewBox="0 0 256 549" version="1.1" xmlns="http://www.w3.org/2000/svg" xmlns:xlink="http://www.w3.org/1999/xlink" preserveAspectRatio="xMidYMid">
    <g>
        <path d="M175.622,61.108 C152.612,33.807 132.797,6.078 128.749,0.479 C128.749,0.479 128.677,0.371 128.531,0.167 C128.53,0.167 128.529,0.165 128.528,0.164 C128.528,0.164 128.527,0.163 128.527,0.162 C128.527,0.162 128.527,0.162 128.527,0.162 C128.527,0.162 128.527,0.162 128.527,0.162 C128.527,0.162 128.527,0.162 128.527,0.162 L128.527,0.162 C128.527,0.162 128.527,0.162 128.527,0.162 C128.527,0.162 128.527,0.162 128.527,0.162 C128.527,0.162 128.526,0.163 128.526,0.164 C128.525,0.165 128.524,0.167 128.523,0.167 C128.377,0.371 128.305,0.479 128.305,0.479 C124.257,6.078 104.442,33.807 81.432,61.108 C-0.797,156.138 -0.011,254.336 -0.011,254.336 L0.066,254.383 C-0.001,256.293 -0.035,258.215 -0.035,260.148 C-0.035,260.148 -6.386,513.014 127.992,548.667 L128.527,548.667 L129.062,548.667 C263.44,513.014 257.089,260.148 257.089,260.148 C257.089,258.215 257.055,256.293 256.988,254.383 L257.065,254.336 C257.065,254.336 257.851,156.138 175.622,61.108" fill="#001E2B"></path>
        <path d="M128.528,482.772 L128.528,482.772 L128.527,482.772 L128.527,482.772 C73.429,447.309 71.588,318.901 71.588,318.901 C71.588,318.901 121.808,321.709 128.528,321.709 L128.528,321.709 L128.528,321.709 C135.247,321.709 185.467,318.901 185.467,318.901 C185.467,318.901 183.626,447.309 128.528,482.772" fill="#13AA52"></path>
        <path d="M128.528,482.772 L128.528,482.772 L128.527,482.772 L128.527,482.772 C85.012,452.849 71.588,318.901 71.588,318.901 C71.588,318.901 121.808,321.709 128.528,321.709 L128.528,321.709 L128.528,321.709 C128.528,321.709 128.528,482.772 128.528,482.772" fill="#B8C4C2"></path>
        <path d="M128.528,427.093 L128.528,427.093 L128.527,427.093 L128.527,427.093 C91.686,399.828 87.947,274.052 87.947,274.052 C87.947,274.052 126.128,278.516 128.528,278.516 L128.528,278.516 L128.528,278.516 C130.927,278.516 169.108,274.052 169.108,274.052 C169.108,274.052 165.369,399.828 128.528,427.093" fill="#12924F"></path>
    </g>
</svg> 