<svg width="16" height="16" viewBox="0 0 16 16" fill="none" xmlns="http://www.w3.org/2000/svg">
  <path d="M8 0C3.58 0 0 3.58 0 8C0 11.54 2.29 14.43 5.47 15.54C5.87 15.61 6.02 15.37 6.02 15.17C6.02 14.99 6.01 14.4 6.01 13.73C3.76 14.19 3.29 12.86 3.29 12.86C2.91 11.96 2.34 11.72 2.34 11.72C1.55 11.19 2.41 11.2 2.41 11.2C3.3 11.27 3.75 12.12 3.75 12.12C4.54 13.52 5.87 13.13 6.37 12.91C6.43 12.35 6.65 11.97 6.89 11.75C5.02 11.53 3.05 10.83 3.05 7.72C3.05 6.84 3.36 6.13 3.9 5.57C3.82 5.35 3.52 4.51 3.98 3.38C3.98 3.38 4.65 3.15 6.01 4.09C6.65 3.91 7.34 3.82 8.02 3.82C8.7 3.82 9.39 3.91 10.03 4.09C11.39 3.15 12.06 3.38 12.06 3.38C12.52 4.51 12.22 5.35 12.14 5.57C12.68 6.13 13 6.84 13 7.72C13 10.84 11.03 11.52 9.15 11.74C9.45 12 9.72 12.52 9.72 13.3C9.72 14.39 9.71 15.26 9.71 15.17C9.71 15.37 9.86 15.62 10.26 15.54C13.43 14.43 15.72 11.54 15.72 8C15.72 3.58 12.42 0 8 0Z" fill="white"/>
</svg>
